<?xml version="1.0" encoding="utf-8"?>
<!-- Generator: Adobe Illustrator 15.1.0, SVG Export Plug-In . SVG Version: 6.00 Build 0)  -->
<!DOCTYPE svg PUBLIC "-//W3C//DTD SVG 1.1//EN" "http://www.w3.org/Graphics/SVG/1.1/DTD/svg11.dtd">
<svg version="1.1" id="Layer_1" xmlns="http://www.w3.org/2000/svg" xmlns:xlink="http://www.w3.org/1999/xlink" x="0px" y="0px"
	 width="100px" height="100px" viewBox="0 0 100 100" enable-background="new 0 0 100 100" xml:space="preserve">
<path fill="#010101" d="M100,18.75v-0.547c0-4.323-0.65-7.787-1.953-10.391c-1.303-2.552-3.125-4.479-5.469-5.781
	C90.234,0.677,87.031,0,82.969,0h-2.344c-3.541,0-6.303,0.625-8.281,1.875c-2.031,1.25-3.594,2.578-4.688,3.984
	s-2.109,3.359-3.047,5.859l-0.391,0.859c-1.146,3.073-1.719,7.083-1.719,12.031v18.516l6.797,2.109l21.484,4.688l2.188-5.078
	c1.406-3.385,2.916-7.396,4.531-12.031C99.166,28.125,100,23.438,100,18.75"/>
<path fill="#010101" d="M35.781,31.328l-0.391-0.859c-0.938-2.5-1.953-4.453-3.047-5.859s-2.656-2.734-4.688-3.984
	c-1.979-1.25-4.74-1.875-8.281-1.875h-2.344c-4.062,0-7.266,0.677-9.609,2.031c-2.344,1.302-4.167,3.229-5.469,5.781
	C0.651,29.167,0,32.63,0,36.953V37.5c0,4.688,0.833,9.375,2.5,14.062c1.615,4.635,3.125,8.646,4.531,12.031l2.188,5.078
	l21.484-4.688l6.797-2.109V43.359C37.5,38.412,36.927,34.401,35.781,31.328"/>
<path fill="#010101" d="M79.141,76.562c1.146-1.041,2.213-2.631,3.203-4.766l0.312-0.547c1.197-2.553,2.291-5.365,3.281-8.438
	l1.484-4.688l-16.016-4.297l-10.781-1.562l-2.188,4.922c-1.459,3.281-2.188,6.562-2.188,9.844v1.406
	c0,2.291,0.365,4.115,1.094,5.469c0.678,1.354,1.328,2.447,1.953,3.281s1.562,1.719,2.812,2.656h0.078
	c1.25,0.938,3.072,1.406,5.469,1.406h0.312c2.604,0,4.844-0.521,6.719-1.562C76.51,78.697,77.994,77.656,79.141,76.562"/>
<path fill="#010101" d="M40.703,95.938c0.625-0.834,1.276-1.928,1.953-3.281c0.729-1.354,1.094-3.178,1.094-5.469v-1.406
	c0-3.281-0.729-6.562-2.188-9.844l-2.188-4.922l-10.781,1.562l-16.016,4.297l1.484,4.688c0.99,3.072,2.083,5.885,3.281,8.438
	l0.312,0.547c0.99,2.135,2.057,3.725,3.203,4.766c1.146,1.094,2.63,2.135,4.453,3.125c1.875,1.041,4.115,1.562,6.719,1.562h0.312
	c2.396,0,4.219-0.469,5.469-1.406h0.078C39.141,97.656,40.078,96.771,40.703,95.938"/>
</svg>
