<svg xmlns="http://www.w3.org/2000/svg" xmlns:xlink="http://www.w3.org/1999/xlink" version="1.1" x="0px" y="0px" width="100px" height="100px" viewBox="0 0 100 100" enable-background="new 0 0 100 100" xml:space="preserve">
<g id="Captions">
</g>
<g id="Your_Icon">
	<path d="M69.24,2.748c-3.339-1.035-6.021-1.329-6.021-1.329S51.165,0.973,42.056,1.061c-8.931-0.356-14.555,5.358-14.555,5.358   c-1.964,1.964-3.751,3.841-7.144,10.895C15.445,28.296,15,49.281,15,49.281s0.445,20.984,5.357,31.968   c3.393,7.053,5.18,10.002,7.144,11.966c0,0,5.624,5.716,14.555,5.357c9.109,0.09,21.163-0.358,21.163-0.358s1.146-0.094,2.78-0.365   c0.761-0.126,4.165-0.637,5.001-0.92c2.102-0.712,4.217-2.367,5.844-5.209c1.341-2.344,2.558-5.276,3.61-8.687   c0.83-2.697,1.56-5.692,2.168-8.926c1.299-6.919,1.447-15.546,1.447-24.087C84.069,24.607,77.492,3.878,69.24,2.748z M69.392,87.46   c-6.36,0.054-11.661-16.991-11.839-38.074c-0.178-21.081,4.832-38.216,11.191-38.27c6.362-0.054,11.662,16.993,11.842,38.076   C80.763,70.273,75.752,87.407,69.392,87.46z"/>
</g>
</svg>