<svg xmlns="http://www.w3.org/2000/svg" xmlns:xlink="http://www.w3.org/1999/xlink" version="1.1" id="Capa_1" x="0px" y="0px" width="100px" height="100px" viewBox="0 0 100 100" enable-background="new 0 0 100 100" xml:space="preserve">
<g id="Capa_31">
	<g>
		<polygon points="34.301,71.345 36.855,66.909 34.301,62.465 27.557,62.465 27.557,71.345   "/>
		<polygon points="34.301,93.632 36.855,89.195 34.295,84.755 27.557,84.755 27.557,93.632   "/>
		<polygon points="34.301,60.203 36.855,55.764 34.301,51.318 27.557,51.318 27.557,60.203   "/>
		<polygon points="34.301,49.058 36.855,44.616 34.301,40.177 27.557,40.177 27.557,49.058   "/>
		<polygon points="44.834,0 39.447,0 39.47,0.038 36.263,5.611 39.47,11.184 36.263,16.756 39.47,22.329 36.263,27.901     39.47,33.474 36.263,39.043 39.47,44.616 36.263,50.188 39.47,55.764 36.263,61.334 39.47,66.909 36.263,72.479 39.47,78.052     36.263,83.624 39.47,89.195 36.263,94.77 39.273,100 44.834,100   "/>
		<polygon points="34.301,82.49 36.855,78.052 34.301,73.609 27.557,73.609 27.557,82.49   "/>
		<polygon points="27.557,95.9 27.557,100 36.664,100 34.295,95.9   "/>
		<polygon points="34.301,4.477 36.855,0.038 36.832,0 27.557,0 27.557,4.477   "/>
		<polygon points="34.301,37.912 36.855,33.474 34.301,29.032 27.557,29.032 27.557,37.912   "/>
		<polygon points="34.301,26.767 36.855,22.329 34.301,17.887 27.557,17.887 27.557,26.767   "/>
		<polygon points="34.301,15.622 36.855,11.184 34.301,6.742 27.557,6.742 27.557,15.622   "/>
		<polygon points="65.71,23.459 63.15,27.901 65.71,32.343 72.443,32.343 72.443,23.459   "/>
		<polygon points="65.704,45.75 63.15,50.188 65.704,54.63 72.443,54.63 72.443,45.75   "/>
		<polygon points="65.704,34.604 63.15,39.043 65.71,43.485 72.443,43.485 72.443,34.604   "/>
		<polygon points="65.704,1.169 63.15,5.611 65.71,10.052 72.443,10.052 72.443,1.169   "/>
		<rect x="47.102" width="5.806" height="100"/>
		<polygon points="65.704,12.314 63.15,16.756 65.71,21.198 72.443,21.198 72.443,12.314   "/>
		<polygon points="65.71,90.33 63.15,94.77 65.704,99.208 72.443,99.208 72.443,90.33   "/>
		<polygon points="65.71,56.896 63.15,61.334 65.704,65.771 72.443,65.771 72.443,56.896   "/>
		<polygon points="60.535,94.77 63.746,89.195 60.535,83.624 63.746,78.052 60.535,72.479 63.746,66.909 60.535,61.334     63.746,55.764 60.535,50.188 63.746,44.616 60.535,39.043 63.746,33.474 60.535,27.901 63.746,22.329 60.535,16.756     63.746,11.184 60.535,5.611 63.746,0.038 63.723,0 55.172,0 55.172,100 63.552,100   "/>
		<polygon points="65.71,79.186 63.15,83.624 65.704,88.063 72.443,88.063 72.443,79.186   "/>
		<polygon points="65.71,68.04 63.15,72.479 65.71,76.917 72.443,76.917 72.443,68.04   "/>
	</g>
</g>
</svg>